{"title":"Bob Torrent S01e01-10, [1080p - H264 - Ita Aac] [TNTVillage]","uid":15322798,"size":599528191,"categoryP":"video","categoryS":"tv_shows","magnet":"?xt=urn:btih:67b5118096d93e50abe6284467d5db9d855bcce9&amp;dn=Bob+Torrent+S01e01-10%2C+%5B1080p+-+H264+-+Ita+Aac%5D+%5BTNTVillage%5D&amp;tr=udp%3A%2F%2Ftracker.leechers-paradise.org%3A6969&amp;tr=udp%3A%2F%2Fzer0day.ch%3A1337&amp;tr=udp%3A%2F%2Fopen.demonii.com%3A1337&amp;tr=udp%3A%2F%2Ftracker.coppersurfer.tk%3A6969&amp;tr=udp%3A%2F%2Fexodus.desync.com%3A6969","seeders":1,"leechers":0,"uploader":"emafox94","files":10,"time":1468666343,"description":"[b][SIZE=7][color=blue]Bob Torrent[/SIZE][/color][/b]\r\n\r\n\r\n[b][color=green].: Trama :.[/color][/b]\r\n\r\nBob Torrent narra le vicende dell’omonimo protagonista, personaggio megalomane e perfido. Produttore cinematografico fallito, Bob decide di vendicarsi diventando il re dei film pirata. Come? Producendo nei fatiscenti studios della Torrent Production film e serie tv di bassissima qualità che spaccia per grandi capolavori di Hollywood o serie tv cult, imbrogliando gli utenti del web. \r\n\r\nPuntata dopo puntata Bob sarà alle prese con la creazione di serie tv di bassa qualità, orrendi film indiani, piattaforme in streaming che non funzionano, torrent pieni di virus. In aiuto del protagonista vi è un team di collaboratori imbranati e divertenti. Come Licio Chiss me (interpretato da Herbert Ballerina), la stagistaAssunta May, la segretaria Silvia Pelvica, il responsabile IT Giobbe e il magazziniere Pino detto Abete(interpretato da Ivo Avido). Delle vicende di Bob Torrent ne farà le spese una coppia di ragazzi che scarica contenuti pirata che col passare del tempo scopre i lati negativi della pirateria.\r\n\r\n[b][color=green].: Scheda tecnica :.[/color][/b]\r\nGeneral\r\nFormat                      : MPEG-4\r\nFormat profile              : Base Media\r\nCodec ID                    : isom\r\nFile size                   : 49.1 MiB\r\nDuration                    : 3mn 23s\r\nOverall bit rate            : 2 027 Kbps\r\nWriting application         : Lavf54.29.104\r\n\r\nVideo\r\nID                          : 1\r\nFormat                      : AVC\r\nFormat/Info                 : Advanced Video Codec\r\nFormat profile              :   \r\nFormat settings, CABAC      : Yes\r\nFormat settings, ReFrames   : 3 frames\r\nCodec ID                    : avc1\r\nCodec ID/Info               : Advanced Video Coding\r\nDuration                    : 3mn 23s\r\nBit rate                    : 1 895 Kbps\r\nWidth                       : 1 920 pixels\r\nHeight                      : 1 080 pixels\r\nDisplay aspect ratio        : 16:9\r\nFrame rate mode             : Constant\r\nFrame rate                  : 25.000 fps\r\nColor space                 : YUV\r\nChroma subsampling          : 4:2:0\r\nBit depth                   : 8 bits\r\nScan type                   : Progressive\r\nBits/(Pixel*Frame)          : 0.037\r\nStream size                 : 45.9 MiB (93%)\r\n\r\nAudio\r\nID                          : 2\r\nFormat                      : AAC\r\nFormat/Info                 : Advanced Audio Codec\r\nFormat profile              : LC\r\nCodec ID                    : 40\r\nDuration                    : 3mn 23s\r\nBit rate mode               : Constant\r\nBit rate                    : 126 Kbps\r\nChannel(s)                  : 2 channels\r\nChannel positions           : Front: L R\r\nSampling rate               : 44.1 KHz\r\nCompression mode            : Lossy\r\nStream size                 : 3.04 MiB (6%)","torrent":{"xt":"urn:btih:67b5118096d93e50abe6284467d5db9d855bcce9","amp;dn":"Bob+Torrent+S01e01-10%2C+%5B1080p+-+H264+-+Ita+Aac%5D+%5BTNTVillage%5D","amp;tr":["udp%3A%2F%2Ftracker.leechers-paradise.org%3A6969","udp%3A%2F%2Fzer0day.ch%3A1337","udp%3A%2F%2Fopen.demonii.com%3A1337","udp%3A%2F%2Ftracker.coppersurfer.tk%3A6969","udp%3A%2F%2Fexodus.desync.com%3A6969"],"infoHash":"67b5118096d93e50abe6284467d5db9d855bcce9","infoHashBuffer":{"type":"Buffer","data":[103,181,17,128,150,217,62,80,171,230,40,68,103,213,219,157,133,91,204,233]},"announce":[],"urlList":[]}}